<?xml version="1.0" encoding="utf-8"?>
<!-- Generator: Adobe Illustrator 25.2.0, SVG Export Plug-In . SVG Version: 6.00 Build 0)  -->
<svg version="1.1" id="Layer_1" xmlns="http://www.w3.org/2000/svg" xmlns:xlink="http://www.w3.org/1999/xlink" x="0px" y="0px"
	 viewBox="0 0 260 260" style="enable-background:new 0 0 260 260;" xml:space="preserve">
<style type="text/css">
	.st0{fill:#5A3600;stroke:#000000;stroke-width:4;stroke-miterlimit:10;}
	.st1{fill:#EDEDEE;stroke:#000000;stroke-width:4;stroke-miterlimit:10;}
	.st2{fill:#6A413E;stroke:#000000;stroke-width:6;stroke-miterlimit:10;}
	.st3{fill:#DCB774;}
	.st4{fill:#F0F0F1;stroke:#000000;stroke-width:4;stroke-miterlimit:10;}
	.st5{fill:#FFFFFF;stroke:#000000;stroke-width:4;stroke-miterlimit:10;}
	.st6{fill:none;stroke:#000000;stroke-width:4;stroke-miterlimit:10;}
	.st7{fill:#DC913E;}
	.st8{fill:#A54444;}
</style>
<circle class="st0" cx="130" cy="129.8" r="118.87"/>
<circle class="st1" cx="130" cy="130" r="113.67"/>
<ellipse class="st2" cx="200.07" cy="190.35" rx="15.12" ry="15.34"/>
<path class="st3" d="M50.14,41.38"/>
<path class="st4" d="M94.53,11.58c-0.77-0.8-1.53-1.62-2.1-2.52c-0.44-0.7-1.79-0.91-5.84-0.22c-3.95,0.68-8,5.18-7.68,7.04
	l0.75,4.38c0.13,0.79,1.23,1.18,2.2,0.79l13.92-5.65c0.91-0.37,1.23-1.25,0.67-1.83L94.53,11.58z"/>
<path class="st5" d="M28.49,66.21l0.04-0.06c2.62-4.18,5.46-8.21,8.51-12.07l0,0c0.76-1.07-1.03-2.8-1.5-3.25
	c-5.41-5.13-16.85,11.36-10.57,14.99l0,0C26.35,66.82,27.93,67,28.49,66.21z"/>
<path class="st5" d="M6.97,121.61c-2.26,0-4.39,3.65-4.39,8.19c0,4.54,2.13,8.19,4.39,8.19c5.22,0,4.33-3.63,4.33-8.17
	C11.3,125.29,12.19,121.61,6.97,121.61z"/>
<path class="st4" d="M165.47,11.58c0.77-0.8,1.53-1.62,2.1-2.52c0.44-0.7,1.79-0.91,5.84-0.22c3.95,0.68,8,5.18,7.68,7.04
	l-0.75,4.38c-0.13,0.79-1.23,1.18-2.2,0.79l-13.92-5.65c-0.91-0.37-1.23-1.25-0.67-1.83L165.47,11.58z"/>
<path class="st5" d="M231.51,67.27l-0.04-0.06c-2.62-4.18-5.46-8.21-8.51-12.07v0c-0.76-1.07,1.03-2.8,1.5-3.25
	c5.41-5.13,16.85,11.36,10.57,14.99l0,0C233.65,67.89,232.07,68.06,231.51,67.27z"/>
<path class="st5" d="M257.42,129.8c0,4.54-2.13,8.19-4.39,8.19c-5.22,0-4.33-3.63-4.33-8.17c0-4.54-0.89-8.22,4.33-8.22
	C255.29,121.61,257.42,125.26,257.42,129.8"/>
<g>
	<path class="st6" d="M64.17,107.15c-2.57,7.27-3.98,15.09-3.98,23.24c0,34.18,24.58,62.61,57.02,68.62"/>
	<path class="st6" d="M183.02,85.02c-12.8-14.95-31.8-24.43-53.02-24.43s-40.22,9.48-53.02,24.43"/>
	<path class="st6" d="M142.78,199.01c32.44-6.01,57.02-34.43,57.02-68.62c0-8.15-1.41-15.97-3.98-23.24"/>
</g>
<g>
	<path class="st6" d="M81.44,171.63c4.59,5.37,10.14,10.06,16.61,13.8c27.1,15.65,60.89,9.17,80.51-13.8"/>
	<path class="st6" d="M118.3,67.26c-17.71,3.31-33.93,14.03-43.64,30.86s-10.89,36.23-4.9,53.22"/>
	<path class="st6" d="M190.26,151.35c10.09-28.47-1.2-60.97-28.3-76.62c-6.46-3.73-13.31-6.19-20.25-7.48"/>
</g>
<g>
	<path class="st7" d="M129.98,182.55c1.58-1.82,4.61-3.63,6.19-5.45c1.69-1.94,3.38-3.89,5.07-5.83c1.32-1.52,2.66-3.06,3.52-4.89
		c1.75-3.72,1.29-8.07,0.8-12.16l1.1,0.44c0.68,2.12,3.94,2.19,5.42,0.55c1.48-1.64,1.6-4.1,1.44-6.33
		c4.67,0.73,9.15,2.37,13.77,3.37c13.21,2.88,27.48,0.39,38.96-6.82c1.03-0.64,2.1-1.42,2.45-2.59c0.28-0.93,0.03-1.93-0.22-2.88
		c-1.2-4.52-2.89-9.64-7.17-11.4c-0.13-0.05-0.27-0.11-0.36-0.22c-0.34-0.39,0.18-0.94,0.62-1.2c8.41-4.75,16.46-10.15,24.06-16.14
		c1.62-1.28,3.26-2.63,4.25-4.45c2.36-4.32,0.18-10.06-3.67-13.07c-3.85-3.01-8.9-3.9-13.75-4.33c-21.15-1.9-42.85,3.11-61.11,14.11
		l0.2-0.25c0.86-3.65-0.13-7.69-2.57-10.51c1.65-2.48,0.22-6.41-2.62-7.21c-0.78-0.22-1.59-0.23-2.39-0.34
		c-4.86-0.67-9.19-4.99-13.99-3.91c-4.79-1.07-9.12,3.24-13.99,3.91c-0.8,0.11-1.62,0.12-2.39,0.34c-2.84,0.8-4.27,4.73-2.62,7.21
		c-2.44,2.82-3.43,6.86-2.57,10.51l0.2,0.25c-18.26-11-39.96-16.01-61.11-14.11c-4.85,0.44-9.9,1.32-13.75,4.33
		c-3.85,3.01-6.03,8.75-3.67,13.07c0.99,1.82,2.63,3.17,4.25,4.45c7.6,5.99,15.65,11.39,24.06,16.14c0.45,0.25,0.96,0.8,0.62,1.2
		c-0.09,0.11-0.23,0.16-0.36,0.22c-4.28,1.76-5.97,6.88-7.17,11.4c-0.25,0.94-0.5,1.94-0.22,2.88c0.35,1.17,1.42,1.94,2.45,2.59
		c11.49,7.21,25.76,9.7,38.96,6.82c4.62-1.01,9.1-2.64,13.77-3.37c-0.16,2.22-0.04,4.68,1.44,6.33c1.48,1.64,4.75,1.57,5.42-0.55
		l1.1-0.44c-0.49,4.09-0.95,8.44,0.8,12.16c0.86,1.83,2.2,3.37,3.52,4.89c1.69,1.94,3.38,3.89,5.07,5.83
		C125.37,178.92,128.4,180.74,129.98,182.55"/>
	<g>
		<path d="M131.31,183.88c1.78-1.97,4.15-3.28,5.97-5.2c2.23-2.36,4.35-4.89,6.42-7.39c1.92-2.31,3.41-4.81,3.9-7.82
			c0.5-3.09,0.21-6.16-0.16-9.25c-0.79,0.6-1.58,1.21-2.37,1.81c0.37,0.15,0.73,0.3,1.1,0.44c-0.44-0.44-0.87-0.87-1.31-1.31
			c1.12,2.93,4.48,3.81,7.18,2.41c3.11-1.62,3.56-5.56,3.36-8.68c-0.79,0.6-1.58,1.21-2.37,1.81c5.86,0.95,11.42,3.16,17.3,4.01
			c5.44,0.79,10.9,0.76,16.34-0.06c5.32-0.8,10.49-2.42,15.34-4.74c2.36-1.12,4.96-2.36,6.91-4.12c2.2-1.98,1.85-4.56,1.14-7.15
			c-0.67-2.44-1.49-4.92-2.81-7.09c-0.65-1.06-1.44-2.1-2.39-2.92c-0.45-0.39-0.92-0.76-1.42-1.07c-0.23-0.15-0.47-0.28-0.72-0.4
			c-0.15-0.08-0.3-0.15-0.46-0.21c-0.34-0.17-0.27-0.1,0.2,0.21c0.06,0.48,0.13,0.96,0.19,1.44c-0.07,0.35-0.04,0.08,0.28-0.06
			c0.27-0.11,0.56-0.32,0.81-0.46c0.47-0.27,0.94-0.55,1.41-0.82c1.08-0.63,2.14-1.27,3.21-1.92c2.06-1.26,4.1-2.56,6.11-3.91
			c3.96-2.64,7.81-5.44,11.57-8.37c3.31-2.57,6.34-5.33,6.67-9.76c0.27-3.69-1.45-7.46-4-10.07c-2.87-2.94-6.94-4.47-10.89-5.23
			c-4.33-0.83-8.8-1.06-13.2-1.1c-8.89-0.09-17.81,1.01-26.42,3.19c-9.76,2.47-19.16,6.39-27.8,11.57c0.76,0.98,1.51,1.96,2.27,2.94
			c1.43-1.8,1.18-4.73,0.8-6.88c-0.44-2.44-1.58-4.64-3.16-6.53c0.1,0.76,0.2,1.51,0.29,2.27c1.24-2.03,1.2-4.57,0.14-6.67
			c-1.28-2.54-3.52-3.31-6.17-3.63c-2.58-0.31-4.85-1.63-7.19-2.65c-2.56-1.11-5.1-1.82-7.9-1.27c0.33,0,0.66,0,1,0
			c-2.73-0.54-5.22,0.12-7.73,1.19c-2.4,1.03-4.73,2.4-7.36,2.72c-2.6,0.32-4.79,1.04-6.1,3.5c-1.13,2.12-1.2,4.73,0.07,6.8
			c0.1-0.76,0.2-1.51,0.29-2.27c-1.58,1.89-2.73,4.09-3.16,6.53c-0.38,2.15-0.63,5.09,0.8,6.88c0.76-0.98,1.51-1.96,2.27-2.94
			c-15.35-9.2-33.05-14.33-50.94-14.74c-4.38-0.1-8.79,0.05-13.14,0.58c-4.19,0.51-8.5,1.43-12.02,3.89
			c-3.07,2.15-5.43,5.44-6.04,9.18c-0.68,4.14,0.88,7.71,3.98,10.45c3.89,3.43,8.26,6.44,12.54,9.36c2.25,1.54,4.54,3.02,6.86,4.46
			c1.13,0.7,2.26,1.38,3.4,2.06c0.54,0.32,1.07,0.63,1.61,0.94c0.27,0.16,0.54,0.31,0.81,0.47c0.14,0.08,0.27,0.15,0.41,0.23
			c0.43,0.31,0.52,0.33,0.28,0.06c0.06-0.48,0.13-0.96,0.19-1.44c0.18-0.42,0.6-0.36,0.05-0.14c-0.26,0.1-0.5,0.23-0.74,0.37
			c-0.47,0.27-0.91,0.59-1.33,0.93c-0.9,0.72-1.64,1.58-2.3,2.53c-1.28,1.83-2.11,3.99-2.78,6.11c-0.74,2.34-1.82,5.19-0.46,7.5
			c1.25,2.14,4.03,3.39,6.13,4.5c9.56,5.04,20.66,7.22,31.41,6.03c6.66-0.74,12.89-3.22,19.48-4.3c-0.79-0.6-1.58-1.21-2.37-1.81
			c-0.2,3.12,0.25,7.07,3.36,8.68c2.7,1.4,6.06,0.52,7.18-2.41c-0.44,0.44-0.87,0.87-1.31,1.31c0.37-0.15,0.73-0.3,1.1-0.44
			c-0.79-0.6-1.58-1.21-2.37-1.81c-0.36,3.02-0.64,6.02-0.19,9.04c0.46,3.1,1.96,5.65,3.93,8.02c2.04,2.46,4.15,4.91,6.31,7.27
			c1.83,1.99,4.26,3.32,6.08,5.32c1.62,1.79,4.27-0.87,2.65-2.65c-1.66-1.84-3.83-3.11-5.6-4.83c-2.13-2.08-4-4.52-5.95-6.78
			c-1.8-2.08-3.28-4.18-3.74-6.94c-0.47-2.78-0.07-5.69,0.26-8.46c0.14-1.13-1.32-2.23-2.37-1.81c-0.79,0.32-1.74,0.55-2.22,1.3
			c-0.38,0.6-0.52,0.87-1.36,0.75c-2.33-0.33-2.11-3.91-2-5.58c0.08-1.33-1.26-1.99-2.37-1.81c-7.03,1.14-13.63,3.89-20.79,4.37
			c-6.45,0.43-12.92-0.37-19.08-2.33c-3.21-1.02-6.3-2.35-9.24-4c-1.1-0.62-2.8-1.29-3.54-2.36c-0.73-1.06,0.13-2.85,0.45-3.96
			c0.7-2.4,1.56-4.97,3.3-6.83c0.82-0.89,1.73-1.27,2.74-1.86c1.6-0.93,1.43-2.95,0.19-4.08c-1.29-1.18-3.19-1.93-4.69-2.82
			c-1.61-0.96-3.2-1.94-4.77-2.95c-3.02-1.93-5.99-3.95-8.9-6.05c-2.78-2.01-5.71-3.99-8.18-6.38c-2.01-1.94-2.9-4.33-2.24-7.1
			c1.5-6.21,7.86-8.55,13.55-9.37c6.49-0.94,13.22-0.9,19.74-0.37c15.22,1.24,30.09,6.07,43.17,13.92c1.95,1.17,3.52-1.37,2.27-2.94
			c-0.19-0.24-0.13-0.17,0.2,0.2c-0.04-0.17-0.07-0.34-0.09-0.52c-0.05-0.36-0.06-0.73-0.07-1.1c-0.01-0.81,0.06-1.6,0.24-2.38
			c0.36-1.58,1.04-3.06,2.08-4.31c0.53-0.64,0.75-1.52,0.29-2.27c-0.55-0.9-0.56-1.92-0.14-2.89c0.57-1.3,1.6-1.63,2.93-1.77
			c3.48-0.37,6.3-2.08,9.49-3.33c1.36-0.53,2.77-0.94,4.24-0.79c1.64,0.17,3.1-0.13,4.75,0.37c3.16,0.97,5.94,2.97,9.23,3.56
			c1.43,0.25,3.07,0.05,4.03,1.33c0.77,1.03,0.91,2.42,0.23,3.52c-0.47,0.76-0.24,1.64,0.29,2.27c1.04,1.24,1.73,2.73,2.08,4.31
			c0.16,0.72,0.24,1.45,0.24,2.19c0,0.39-0.01,0.78-0.05,1.16c-0.02,0.22-0.06,0.44-0.1,0.65c0.33-0.37,0.39-0.44,0.2-0.2
			c-1.24,1.56,0.31,4.12,2.27,2.94c11.62-6.96,24.61-11.54,38.03-13.37c6.75-0.92,13.6-1.12,20.39-0.63
			c5.63,0.4,12.7,1.15,16.3,6.11c1.53,2.1,2.45,4.9,1.71,7.47c-0.85,2.95-3.95,4.88-6.26,6.64c-5.7,4.36-11.64,8.39-17.8,12.07
			c-1.5,0.89-3.4,1.64-4.69,2.82c-1.24,1.14-1.4,3.16,0.19,4.08c1.01,0.59,1.92,0.97,2.74,1.86c0.88,0.95,1.53,2.13,2.06,3.31
			c0.51,1.14,0.89,2.34,1.24,3.53c0.32,1.11,1.18,2.9,0.45,3.96c-0.73,1.06-2.43,1.74-3.54,2.36c-1.48,0.83-2.99,1.58-4.54,2.26
			c-6.66,2.9-13.99,4.3-21.24,4.18c-3.77-0.07-7.49-0.57-11.16-1.47c-4.06-1-8.03-2.32-12.16-3c-1.11-0.18-2.46,0.48-2.37,1.81
			c0.11,1.67,0.33,5.25-2,5.58c-0.84,0.12-0.99-0.14-1.36-0.75c-0.46-0.75-1.44-0.99-2.22-1.3c-1.05-0.43-2.51,0.67-2.37,1.81
			c0.33,2.72,0.7,5.56,0.29,8.29c-0.43,2.84-1.94,4.99-3.77,7.11c-1.92,2.21-3.76,4.58-5.82,6.65c-1.79,1.79-4.02,3.07-5.73,4.95
			C127.04,183.01,129.68,185.67,131.31,183.88L131.31,183.88z"/>
	</g>
</g>
<path class="st8" d="M115.69,52.32"/>
<path class="st8" d="M108.94,51.92"/>
<path class="st4" d="M165.47,248.42c0.77,0.8,1.53,1.62,2.1,2.52c0.44,0.7,1.79,0.91,5.84,0.22c3.95-0.68,8-5.18,7.68-7.04
	l-0.75-4.38c-0.13-0.79-1.23-1.18-2.2-0.79l-13.92,5.65c-0.91,0.37-1.23,1.25-0.67,1.83L165.47,248.42z"/>
<path class="st5" d="M231.51,193.79l-0.04,0.06c-2.62,4.18-5.46,8.21-8.51,12.07l0,0c-0.76,1.07,1.03,2.8,1.5,3.25
	c5.41,5.13,16.85-11.36,10.57-14.99l0,0C233.65,193.18,232.07,193,231.51,193.79z"/>
<path class="st4" d="M94.53,248.42c-0.77,0.8-1.53,1.62-2.1,2.52c-0.44,0.7-1.79,0.91-5.84,0.22c-3.95-0.68-8-5.18-7.68-7.04
	l0.75-4.38c0.13-0.79,1.23-1.18,2.2-0.79l13.92,5.65c0.91,0.37,1.23,1.25,0.67,1.83L94.53,248.42z"/>
<path class="st5" d="M28.49,193.79l0.04,0.06c2.62,4.18,5.46,8.21,8.51,12.07h0c0.76,1.07-1.03,2.8-1.5,3.25
	c-5.41,5.13-16.85-11.36-10.57-14.99l0,0C26.35,193.18,27.93,193,28.49,193.79z"/>
</svg>
